<svg width="106" height="127" viewBox="0 0 106 127" fill="none" xmlns="http://www.w3.org/2000/svg">
<path d="M17.4089 118.907C15.7195 118.907 14.2649 118.524 13.0452 117.759C11.8331 116.986 10.9013 115.922 10.2498 114.566C9.59825 113.21 9.27249 111.657 9.27249 109.907C9.27249 108.134 9.60582 106.57 10.2725 105.214C10.9392 103.85 11.8786 102.786 13.0907 102.02C14.3028 101.255 15.7308 100.873 17.3748 100.873C18.7005 100.873 19.8823 101.119 20.9202 101.611C21.9581 102.096 22.7952 102.778 23.4316 103.657C24.0755 104.536 24.4581 105.562 24.5793 106.736H21.2725C21.0907 105.918 20.674 105.214 20.0225 104.623C19.3786 104.032 18.5149 103.736 17.4316 103.736C16.4846 103.736 15.6551 103.986 14.9429 104.486C14.2384 104.979 13.6892 105.683 13.2952 106.6C12.9013 107.509 12.7043 108.585 12.7043 109.827C12.7043 111.1 12.8975 112.198 13.2839 113.123C13.6702 114.047 14.2157 114.763 14.9202 115.27C15.6323 115.778 16.4695 116.032 17.4316 116.032C18.0755 116.032 18.6589 115.914 19.1816 115.679C19.7119 115.437 20.1551 115.092 20.5111 114.645C20.8748 114.198 21.1286 113.661 21.2725 113.032H24.5793C24.4581 114.161 24.0907 115.168 23.477 116.054C22.8634 116.941 22.0414 117.638 21.0111 118.145C19.9884 118.653 18.7876 118.907 17.4089 118.907ZM31.6106 108.191V118.554H28.2128V95.2818H31.5651V103.941H31.781C32.1901 103.001 32.8151 102.255 33.656 101.702C34.4969 101.149 35.5954 100.873 36.9515 100.873C38.1484 100.873 39.1939 101.119 40.0878 101.611C40.9893 102.104 41.6863 102.839 42.1787 103.816C42.6787 104.786 42.9287 105.998 42.9287 107.452V118.554H39.531V107.861C39.531 106.581 39.2015 105.589 38.5424 104.884C37.8833 104.172 36.9666 103.816 35.7924 103.816C34.9893 103.816 34.2697 103.986 33.6333 104.327C33.0045 104.668 32.5083 105.168 32.1447 105.827C31.7886 106.479 31.6106 107.267 31.6106 108.191ZM52.5424 118.941C51.4363 118.941 50.4363 118.736 49.5424 118.327C48.6484 117.911 47.9401 117.308 47.4174 116.52C46.9022 115.733 46.6447 114.767 46.6447 113.623C46.6447 112.638 46.834 111.827 47.2128 111.191C47.5916 110.554 48.103 110.051 48.7469 109.679C49.3909 109.308 50.1106 109.028 50.906 108.839C51.7015 108.649 52.5121 108.505 53.3378 108.407C54.3833 108.286 55.2318 108.187 55.8833 108.111C56.5348 108.028 57.0083 107.895 57.3037 107.714C57.5992 107.532 57.7469 107.236 57.7469 106.827V106.748C57.7469 105.755 57.4666 104.986 56.906 104.441C56.353 103.895 55.5272 103.623 54.4287 103.623C53.2848 103.623 52.3833 103.876 51.7242 104.384C51.0727 104.884 50.6219 105.441 50.3719 106.054L47.1787 105.327C47.5575 104.267 48.1106 103.411 48.8378 102.759C49.5727 102.1 50.4174 101.623 51.3719 101.327C52.3265 101.024 53.3303 100.873 54.3833 100.873C55.0803 100.873 55.8189 100.956 56.5992 101.123C57.3871 101.282 58.1219 101.577 58.8037 102.009C59.4931 102.441 60.0575 103.058 60.4969 103.861C60.9363 104.657 61.156 105.691 61.156 106.964V118.554H57.8378V116.168H57.7015C57.4818 116.608 57.1522 117.039 56.7128 117.464C56.2734 117.888 55.709 118.24 55.0197 118.52C54.3303 118.801 53.5045 118.941 52.5424 118.941ZM53.281 116.214C54.2204 116.214 55.0234 116.028 55.6901 115.657C56.3643 115.286 56.8757 114.801 57.2242 114.202C57.5803 113.596 57.7583 112.948 57.7583 112.259V110.009C57.6371 110.13 57.4022 110.244 57.0537 110.35C56.7128 110.448 56.3227 110.536 55.8833 110.611C55.4439 110.679 55.0159 110.744 54.5992 110.804C54.1825 110.858 53.834 110.903 53.5537 110.941C52.8947 111.024 52.2924 111.164 51.7469 111.361C51.209 111.558 50.7772 111.842 50.4515 112.214C50.1333 112.577 49.9742 113.062 49.9742 113.668C49.9742 114.509 50.2848 115.145 50.906 115.577C51.5272 116.001 52.3189 116.214 53.281 116.214ZM73.8293 101.1V103.827H64.2952V101.1H73.8293ZM66.852 96.9181H70.2498V113.429C70.2498 114.089 70.3482 114.585 70.5452 114.918C70.7422 115.244 70.996 115.467 71.3066 115.589C71.6248 115.702 71.9695 115.759 72.3407 115.759C72.6134 115.759 72.852 115.74 73.0566 115.702C73.2611 115.664 73.4202 115.634 73.5339 115.611L74.1475 118.418C73.9505 118.494 73.6702 118.57 73.3066 118.645C72.9429 118.729 72.4884 118.774 71.9429 118.782C71.049 118.797 70.2157 118.638 69.4429 118.304C68.6702 117.971 68.0452 117.456 67.5679 116.759C67.0907 116.062 66.852 115.187 66.852 114.134V96.9181ZM85.7356 101.1V103.827H76.2015V101.1H85.7356ZM78.7583 96.9181H82.156V113.429C82.156 114.089 82.2545 114.585 82.4515 114.918C82.6484 115.244 82.9022 115.467 83.2128 115.589C83.531 115.702 83.8757 115.759 84.2469 115.759C84.5197 115.759 84.7583 115.74 84.9628 115.702C85.1674 115.664 85.3265 115.634 85.4401 115.611L86.0537 118.418C85.8568 118.494 85.5765 118.57 85.2128 118.645C84.8492 118.729 84.3947 118.774 83.8492 118.782C82.9553 118.797 82.1219 118.638 81.3492 118.304C80.5765 117.971 79.9515 117.456 79.4742 116.759C78.9969 116.062 78.7583 115.187 78.7583 114.134V96.9181ZM89.4941 118.554V101.1H92.7782V103.873H92.96C93.2782 102.933 93.8388 102.195 94.6418 101.657C95.4524 101.111 96.3691 100.839 97.3918 100.839C97.6039 100.839 97.8539 100.846 98.1418 100.861C98.4373 100.876 98.6683 100.895 98.835 100.918V104.168C98.6986 104.13 98.4562 104.089 98.1077 104.043C97.7592 103.99 97.4107 103.964 97.0623 103.964C96.2592 103.964 95.5433 104.134 94.9145 104.475C94.2933 104.808 93.8009 105.274 93.4373 105.873C93.0736 106.464 92.8918 107.138 92.8918 107.895V118.554H89.4941Z" fill="#F95D24"/>
<path d="M90.7725 45.0545C90.7725 63.3204 75.1202 78.5545 55.2725 78.5545C35.4248 78.5545 19.7725 63.3204 19.7725 45.0545C19.7725 26.7885 35.4248 11.5545 55.2725 11.5545C75.1202 11.5545 90.7725 26.7885 90.7725 45.0545Z" stroke="#F95D24" stroke-width="10"/>
<path d="M9.80916 80.9481L18.9225 60.9876L30.6225 73.9996L9.80916 80.9481Z" fill="#F95D24"/>
<circle cx="42" cy="45" r="3" fill="#F95D24"/>
<circle cx="55" cy="45" r="3" fill="#F95D24"/>
<circle cx="68" cy="45" r="3" fill="#F95D24"/>
</svg>
